<svg width="25" height="24" fill="none" xmlns="http://www.w3.org/2000/svg"><path d="M12.5 2.775c3 0 3.36.011 4.546.065a4.82 4.82 0 0 1 3.382 1.23 4.82 4.82 0 0 1 1.23 3.382c.053 1.189.067 1.548.067 4.548s-.011 3.36-.065 4.546a4.82 4.82 0 0 1-1.23 3.382 4.819 4.819 0 0 1-3.382 1.23c-1.186.053-1.542.065-4.546.065-3.004 0-3.359-.011-4.546-.066a4.82 4.82 0 0 1-3.382-1.229 4.819 4.819 0 0 1-1.23-3.382c-.055-1.187-.069-1.542-.069-4.546 0-3.004.011-3.36.065-4.546a4.82 4.82 0 0 1 1.23-3.382 4.82 4.82 0 0 1 3.384-1.23c1.187-.054 1.546-.067 4.546-.067Zm0-2.025c-3.055 0-3.438.013-4.639.068a6.73 6.73 0 0 0-4.725 1.82 6.728 6.728 0 0 0-1.82 4.725C1.263 8.562 1.25 8.945 1.25 12c0 3.055.013 3.438.067 4.639a6.73 6.73 0 0 0 1.82 4.725 6.728 6.728 0 0 0 4.726 1.82c1.2.055 1.584.067 4.638.067 3.055 0 3.439-.012 4.64-.067a6.73 6.73 0 0 0 4.724-1.82 6.729 6.729 0 0 0 1.82-4.725c.055-1.2.068-1.584.068-4.639s-.013-3.438-.067-4.639a6.73 6.73 0 0 0-1.82-4.725A6.728 6.728 0 0 0 17.14.816C15.938.763 15.555.75 12.5.75Z" fill="#fff"/><path d="M12.5 6.226a5.775 5.775 0 1 0 0 11.55 5.775 5.775 0 0 0 0-11.55Zm0 9.525a3.75 3.75 0 1 1 0-7.501 3.75 3.75 0 0 1 0 7.5ZM18.505 7.345a1.35 1.35 0 1 0 0-2.7 1.35 1.35 0 0 0 0 2.7Z" fill="#fff"/></svg>