<svg width="138" height="61" viewBox="0 0 138 61" fill="none" xmlns="http://www.w3.org/2000/svg">
<path fill-rule="evenodd" clip-rule="evenodd" d="M26.542 4.6665L26.7567 6.1915C19.9027 20.0538 28.6427 18.9253 28.6427 18.9253L29.7467 18.727L29.9154 19.0625C46.1534 17.2325 55.0314 25.6353 55.0314 25.6353C56.212 5.74925 26.542 4.6665 26.542 4.6665Z" fill="#F8B829"/>
<path d="M16.3455 51.4993C15.6555 56.0743 19.4122 58.7277 20.0102 57.2637C21.6662 55.1135 22.2488 55.7387 23.0768 52.5057C23.3791 52.1043 23.7292 51.7407 24.1195 51.423C24.9577 50.5588 25.7653 49.6743 26.5422 48.7695C28.8336 46.1914 30.7911 43.3377 32.3688 40.2752C34.1193 37.1831 34.7575 33.5898 34.1782 30.0883C33.551 28.317 32.6566 26.6509 31.5255 25.1472C31.1802 24.36 31.0228 23.504 31.0655 22.6462C31.0275 21.3631 30.6407 20.1141 29.9462 19.032C29.5876 18.6475 29.3148 18.1919 29.1457 17.6952C28.9766 17.1985 28.915 16.6718 28.9648 16.1498C29.1642 14.9908 29.1642 13.847 29.3328 12.688C29.4391 10.5223 29.0402 8.36148 28.1675 6.3745C28.1675 6.3745 27.0942 4.4835 26.1435 4.95625C24.4509 3.8904 22.4836 3.33603 20.4804 3.36039C18.4771 3.38475 16.5241 3.98681 14.8582 5.0935C14.8582 5.0935 -7.09917 19.0473 12.6962 45.8568C12.0982 49.3338 14.2295 52.9175 15.8855 55.2965" fill="#005D86"/>
<path d="M26.45 20.8926L23.4753 7.41157C23.4753 7.41157 21.7273 2.22657 17.1273 8.76882L16.3607 7.76232C12.1287 13.7251 6.39398 20.8773 7.66665 28.6243C7.85176 30.0543 8.34827 31.4268 9.12156 32.6463C9.89485 33.8658 10.9263 34.9028 12.144 35.6851C13.9384 36.9244 16.1108 37.5033 18.2878 37.3225C20.4649 37.1416 22.5106 36.2121 24.0733 34.6938C26.4653 32.7113 28.4126 28.6853 26.45 20.8926Z" fill="white"/>
<path fill-rule="evenodd" clip-rule="evenodd" d="M29.9152 19.1083C29.9152 19.1083 44.1138 16.9123 55.0312 25.681C55.0312 25.681 44.7578 12.2763 28.3818 14.762C28.3972 14.762 27.2165 18.056 29.9152 19.1083Z" fill="#F19320"/>
<path d="M55.0316 25.6811C55.3202 22.222 54.4407 18.766 52.5323 15.86C52.3789 15.6618 51.1983 18.2238 51.183 18.4526C51.1202 19.5211 51.382 20.5838 51.9343 21.5026C52.7163 22.9361 54.6176 24.1103 55.0009 25.6505" fill="#E95253"/>
<path d="M1.5332 45.0486C3.54016 45.8082 5.73008 45.9516 7.81987 45.4603C10.7485 45.8568 12.2819 46.7718 15.7779 47.1683C20.0559 47.1683 24.3032 46.7108 28.5505 46.3143C29.9305 46.1923 32.9972 46.0246 34.1625 47.1073C34.8372 47.7326 34.6379 49.4253 34.6532 50.3098C32.1185 49.3486 29.4497 48.7828 26.7412 48.6323C23.6745 48.6323 20.5005 48.7696 17.3879 48.7391C15.2647 48.7453 13.1453 48.5616 11.0552 48.1901C9.10787 47.8241 7.1912 47.3208 5.24387 46.9243C3.8332 46.6193 2.11587 46.3753 1.5332 45.0486Z" fill="#9B5F48"/>
<path d="M28.8728 47.7935C28.8728 48.2815 28.4435 49.3185 28.0448 49.3185C27.6461 49.3185 27.2168 48.2967 27.2168 47.7935V46.0702C27.2168 45.5822 27.5235 45.0942 27.9221 45.0942C28.1632 45.1309 28.385 45.247 28.5518 45.424C28.7187 45.601 28.8209 45.8286 28.8421 46.0702L28.8728 47.7935Z" fill="#969595"/>
<path d="M27.2163 48.0375C27.2163 48.4187 26.9097 49.2117 26.5877 49.2117C26.2657 49.2117 25.959 48.4187 25.959 48.0375V46.6802C25.959 46.299 26.189 45.9177 26.511 45.9177C26.6954 45.9462 26.8639 46.0381 26.9872 46.1774C27.1104 46.3168 27.1807 46.4947 27.1856 46.6802L27.2163 48.0375Z" fill="#838383"/>
<path d="M12.0059 47.7935C12.0059 48.2815 12.4352 49.3185 12.8339 49.3185C13.2325 49.3185 13.6619 48.2967 13.6619 47.7935V46.0702C13.6619 45.5822 13.3552 45.0942 12.9565 45.0942C12.7154 45.1309 12.4937 45.247 12.3268 45.424C12.16 45.601 12.0578 45.8286 12.0365 46.0702L12.0059 47.7935Z" fill="#969595"/>
<path d="M13.6621 48.0375C13.6621 48.4187 13.9688 49.2117 14.2908 49.2117C14.6128 49.2117 14.9194 48.4187 14.9194 48.0375V46.6802C14.9194 46.299 14.6894 45.9177 14.3674 45.9177C14.183 45.9462 14.0145 46.0381 13.8913 46.1774C13.768 46.3168 13.6977 46.4947 13.6928 46.6802L13.6621 48.0375Z" fill="#838383"/>
<path d="M29.5783 14.4571C29.9463 13.5878 30.621 10.8886 28.7503 6.23735C28.413 5.5206 27.5696 3.85835 25.7756 4.71235C25.515 5.10885 29.011 7.2896 28.2903 14.9756C28.2903 14.9756 27.3856 18.1933 29.9156 19.0931C29.5391 18.3019 29.3453 17.4369 29.3483 16.5616C29.2947 15.852 29.3727 15.1387 29.5783 14.4571ZM29.4096 14.7621C29.4096 14.7621 29.4096 14.7621 29.425 14.7621H29.4096Z" fill="#003B55"/>
<path d="M26.5416 11.6205C27.2162 15.2195 25.4069 17.263 21.8189 17.3087C19.0589 17.3087 15.0416 16.7292 14.6582 13.3742C14.3362 10.4615 16.1916 6.51173 19.1662 5.62723C23.2909 4.37673 25.8976 8.08248 26.5569 11.6205H26.5416Z" fill="#F8B829"/>
<path d="M24.3487 11.3611C24.4903 11.7847 24.5202 12.2373 24.4356 12.6757C24.3509 13.114 24.1546 13.5234 23.8653 13.8647C23.576 14.2059 23.2035 14.4676 22.7834 14.6247C22.3634 14.7818 21.9098 14.829 21.4661 14.7619C19.7181 14.7619 17.2801 14.3501 17.1267 12.2304C17.0447 11.2662 17.2721 10.301 17.7763 9.47353C18.2805 8.64602 19.0355 7.99879 19.9327 7.62488C22.4014 6.93863 23.9347 9.14988 24.3027 11.3001L24.3487 11.3611Z" fill="#005D86"/>
<path fill-rule="evenodd" clip-rule="evenodd" d="M23.0001 10.9039C23.0001 11.4721 22.7731 12.0171 22.3691 12.4189C21.9651 12.8207 21.4171 13.0465 20.8457 13.0465C20.2744 13.0465 19.7264 12.8207 19.3224 12.4189C18.9184 12.0171 18.6914 11.4721 18.6914 10.9039C18.6914 10.3356 18.9184 9.79061 19.3224 9.38879C19.7264 8.98697 20.2744 8.76123 20.8457 8.76123C21.4171 8.76123 21.9651 8.98697 22.3691 9.38879C22.7731 9.79061 23.0001 10.3356 23.0001 10.9039Z" fill="#151410"/>
<path fill-rule="evenodd" clip-rule="evenodd" d="M21.145 9.54658C21.145 9.92783 20.8076 9.54658 20.8076 9.54658C20.8076 9.54658 21.145 9.15008 21.145 9.54658Z" fill="white"/>
<path fill-rule="evenodd" clip-rule="evenodd" d="M19.9331 9.5314C19.7184 9.5314 19.6724 9.76015 19.6417 10.0042C19.5839 10.026 19.5318 10.0605 19.4891 10.1051C19.4465 10.1497 19.4144 10.2032 19.3953 10.2617C19.3762 10.3202 19.3705 10.3823 19.3786 10.4432C19.3868 10.5042 19.4086 10.5626 19.4424 10.6142C19.4424 10.6142 20.4851 9.63815 20.5617 9.69915C20.4747 9.62879 20.3737 9.57748 20.2654 9.54857C20.1571 9.51966 20.0438 9.51382 19.9331 9.5314Z" fill="white"/>
<path d="M54.2031 44.7131C54.324 44.7103 54.444 44.7333 54.5552 44.7807C54.6663 44.8281 54.7658 44.8986 54.8471 44.9876L56.6565 46.9091C53.9118 50.3861 48.6525 51.1639 44.6351 49.6846C42.6381 48.8725 40.9335 47.4807 39.7437 45.6907C38.5539 43.9007 37.9341 41.7957 37.9651 39.6501C37.8 37.4764 38.2857 35.3026 39.3608 33.4029C40.4359 31.5032 42.0524 29.9626 44.0065 28.9751C46.023 28.0417 48.272 27.7217 50.4708 28.0555C52.6696 28.3892 54.7203 29.3617 56.3651 30.8509L54.8318 32.9249C54.0038 34.1144 52.7311 32.8029 51.8725 32.3911C50.5986 31.8071 49.178 31.6159 47.7938 31.8421C46.373 32.1344 45.0936 32.8964 44.1637 34.004C43.2338 35.1116 42.7082 36.4996 42.6725 37.9421C42.4467 39.309 42.5793 40.7107 43.0574 42.0117C43.5355 43.3127 44.343 44.469 45.4018 45.3689C46.6117 46.175 48.0518 46.5691 49.506 46.4921C50.9602 46.4151 52.3501 45.8712 53.4671 44.9419C53.6798 44.7858 53.939 44.7053 54.2031 44.7131Z" fill="white"/>
<path d="M62.8661 27.6177V50.0962H58.6494V27.6177H62.8661Z" fill="white"/>
<path d="M70.6248 34.5566V50.1116H66.4541V34.5566H70.6248Z" fill="white"/>
<path d="M71.1309 30.0426C71.1309 33.2908 65.9482 33.3061 65.9482 30.0426C65.9482 26.7791 71.1309 26.7791 71.1309 30.0426Z" fill="white"/>
<path d="M85.5444 38.0184C84.8851 38.9029 84.1797 38.3539 83.4437 38.0184C82.5364 37.5089 81.4751 37.3411 80.4537 37.5457C78.3377 38.0184 77.7244 40.1687 77.6631 42.1207C77.6017 44.0727 78.0157 46.2992 79.9477 47.0769C80.4401 47.264 80.9652 47.3509 81.4919 47.3326C82.0187 47.3143 82.5364 47.191 83.0144 46.9702C83.7657 46.6194 84.8391 45.2927 85.6211 46.3144L86.8171 47.8394C85.7365 48.9777 84.3496 49.7828 82.8216 50.1587C81.2936 50.5346 79.6892 50.4653 78.1997 49.9592C76.7317 49.3718 75.4823 48.3472 74.6231 47.0257C73.7638 45.7042 73.3367 44.1506 73.4004 42.5782C73.2572 40.9727 73.6241 39.3631 74.4494 37.9761C75.2746 36.589 76.5166 35.4944 78.0004 34.8464C79.4597 34.2867 81.0498 34.1544 82.5823 34.4652C84.1149 34.776 85.5259 35.5169 86.6484 36.6002L85.5444 38.0184Z" fill="white"/>
<path d="M93.0736 27.6177V40.3819H93.7636C93.9735 40.3918 94.1824 40.348 94.3704 40.2545C94.5583 40.161 94.719 40.0211 94.8369 39.8482L98.2869 35.2732C98.4458 35.0498 98.6577 34.8689 98.9038 34.7465C99.1499 34.6242 99.4226 34.5641 99.6976 34.5717H103.516L99.0536 40.2142C98.7242 40.6636 98.307 41.0422 97.8269 41.3274C98.2786 41.6693 98.6544 42.1002 98.9309 42.5932L103.761 50.0809H100.004C99.7258 50.1005 99.4472 50.0441 99.1987 49.9178C98.9501 49.7915 98.7409 49.6 98.5936 49.3642L95.0669 43.6607C94.9606 43.4633 94.7969 43.3025 94.5972 43.1991C94.3975 43.0957 94.1711 43.0546 93.9476 43.0812H93.0736V50.0962H88.9336V27.6177H93.0736Z" fill="white"/>
<path d="M109.618 27.6177V40.3819H110.308C110.518 40.3918 110.726 40.348 110.914 40.2545C111.102 40.161 111.263 40.0211 111.381 39.8482L114.831 35.2732C114.99 35.0498 115.202 34.8689 115.448 34.7465C115.694 34.6242 115.967 34.5641 116.242 34.5717H120.06L115.567 40.2447C115.238 40.6941 114.82 41.0727 114.34 41.3579C114.792 41.6998 115.168 42.1307 115.444 42.6237L120.274 50.1114H116.533C116.255 50.131 115.976 50.0746 115.727 49.9483C115.479 49.8219 115.27 49.6305 115.122 49.3947L111.611 43.6759C111.505 43.4786 111.341 43.3177 111.141 43.2143C110.942 43.111 110.715 43.0699 110.492 43.0964H109.618V50.1114H105.432V27.6177H109.618Z" fill="white"/>
<path d="M128.033 54.2749C127.926 54.5415 127.736 54.7669 127.49 54.9178C127.244 55.0688 126.957 55.1374 126.669 55.1136H123.602L126.515 48.8001L120.244 34.4956H123.909C124.157 34.4843 124.403 34.5502 124.611 34.6842C124.82 34.8181 124.982 35.0134 125.074 35.2429L128.049 42.7001C128.263 43.2898 128.447 43.8795 128.601 44.4691C128.785 43.8744 128.999 43.2796 129.229 42.6849L131.989 35.2581C132.082 35.0349 132.239 34.8443 132.441 34.711C132.644 34.5778 132.882 34.5081 133.124 34.5109H136.467L128.033 54.2749Z" fill="white"/>
</svg>
