<svg width="187" height="48" viewBox="0 0 187 48" fill="none" xmlns="http://www.w3.org/2000/svg">
<path d="M9.43418 0.372314L0.209961 5.66887L9.43418 10.9654L0.209961 16.1792L9.43418 21.4758L0.209961 26.6896L9.43418 31.9861L21.4257 25.1999L27.9665 31.9861V21.5171L37.1907 16.2206L9.43418 0.372314ZM26.2893 27.5999L11.1113 11.8758L26.2893 20.4827V27.5999Z" fill="black"/>
<path d="M186.79 23.9999H183.52V18.7034H180.585V23.9999H177.231V26.8137H180.585V40.5516H183.52V26.7723H186.79V23.9999ZM170.019 23.5861C169.046 23.5334 168.076 23.7352 167.207 24.1712C166.338 24.6071 165.602 25.2618 165.071 26.0689V23.9999H162.136V40.5516H165.071V31.0758C165.018 30.4162 165.103 29.753 165.319 29.1267C165.535 28.5005 165.879 27.9246 166.329 27.4344C167.125 26.6981 168.173 26.2845 169.264 26.2758C169.724 26.2527 170.184 26.3214 170.616 26.4778C171.048 26.6342 171.444 26.8751 171.78 27.1861C172.113 27.5394 172.367 27.9576 172.526 28.4138C172.684 28.8699 172.745 29.3539 172.702 29.8344V40.4275H175.637V29.6689C175.656 28.5219 175.397 27.3871 174.883 26.3585C174.419 25.4765 173.724 24.7334 172.87 24.2068C171.987 23.7654 171.009 23.5384 170.019 23.5447V23.5861ZM145.91 31.0758C146.069 29.7321 146.726 28.494 147.755 27.5999C148.812 26.7267 150.151 26.2568 151.529 26.2758C152.816 26.2565 154.067 26.6974 155.051 27.5172C155.571 27.9635 155.995 28.5085 156.297 29.1199C156.6 29.7312 156.775 30.3964 156.812 31.0758H145.91ZM159.747 33.5585C159.816 33.1207 159.844 32.6774 159.83 32.2344C159.837 30.7159 159.492 29.216 158.824 27.8482C158.182 26.5408 157.198 25.4265 155.973 24.6206C154.673 23.8042 153.152 23.3999 151.612 23.462C150.027 23.4521 148.465 23.8515 147.084 24.6206C145.773 25.3627 144.698 26.452 143.982 27.7654C143.229 29.1357 142.853 30.6764 142.891 32.2344C142.853 33.7924 143.229 35.3331 143.982 36.7034C144.698 38.0168 145.773 39.1061 147.084 39.8482C148.465 40.6173 150.027 41.0167 151.612 41.0068C153.339 41.0234 155.032 40.5337 156.476 39.5999C157.782 38.7228 158.756 37.4417 159.243 35.9585H156.225C155.866 36.7263 155.242 37.3426 154.464 37.6965C153.414 38.2158 152.238 38.4367 151.068 38.3344C149.898 38.2321 148.78 37.8106 147.839 37.1172C146.767 36.2111 146.079 34.9412 145.91 33.5585H159.747ZM131.445 38.0689C130.391 38.0777 129.352 37.8213 128.426 37.3241C127.523 36.8051 126.772 36.0637 126.246 35.1723C125.75 34.2554 125.491 33.2322 125.491 32.193C125.491 31.1538 125.75 30.1306 126.246 29.2137C126.772 28.3223 127.523 27.5809 128.426 27.062C129.355 26.573 130.392 26.3172 131.445 26.3172C132.498 26.3172 133.535 26.573 134.464 27.062C135.367 27.5809 136.118 28.3223 136.644 29.2137C137.14 30.1306 137.399 31.1538 137.399 32.193C137.399 33.2322 137.14 34.2554 136.644 35.1723C136.118 36.0637 135.367 36.8051 134.464 37.3241C133.538 37.8213 132.499 38.0777 131.445 38.0689ZM137.399 23.9999V26.8965C136.717 25.8919 135.795 25.0678 134.715 24.4965C133.581 23.8959 132.313 23.583 131.026 23.5861C129.522 23.5984 128.048 23.9978 126.749 24.7447C125.438 25.4868 124.363 26.5761 123.646 27.8896C122.878 29.1972 122.473 30.6816 122.472 32.193C122.473 33.7306 122.878 35.2417 123.646 36.5792C124.387 37.8754 125.456 38.9592 126.749 39.7241C128.039 40.4917 129.519 40.8927 131.026 40.8827C132.282 40.8913 133.521 40.5937 134.633 40.0162C135.745 39.4387 136.695 38.5992 137.399 37.5723V39.8896C137.429 40.5732 137.318 41.2558 137.073 41.8959C136.828 42.5361 136.454 43.1205 135.973 43.6137C134.828 44.5624 133.356 45.0369 131.864 44.9379C130.907 44.9805 129.954 44.7811 129.097 44.3585C128.369 44.0555 127.733 43.5707 127.252 42.9516C126.872 42.4497 126.666 41.8402 126.665 41.2137H123.73C123.735 42.4157 124.149 43.5813 124.904 44.5241C125.679 45.5325 126.725 46.3065 127.923 46.7585C129.159 47.3177 130.505 47.6003 131.864 47.5861C133.312 47.5889 134.744 47.2781 136.057 46.6758C137.324 46.0994 138.399 45.1813 139.16 44.0275C139.959 42.7634 140.367 41.2965 140.334 39.8068V23.9999H137.399ZM116.938 40.5516H119.915V23.9999H116.98L116.938 40.5516ZM116.938 21.0206H119.915V17.3792H116.98L116.938 21.0206ZM110.397 40.5516H113.332V16.6758H110.397V40.5516ZM103.856 40.5516H106.791V16.6758H103.856V40.5516ZM87.588 31.1172C87.747 29.7735 88.4042 28.5354 89.4329 27.6413C90.4894 26.7681 91.8284 26.2982 93.2064 26.3172C94.4937 26.2978 95.7447 26.7388 96.7284 27.5585C97.2487 28.0049 97.6727 28.5499 97.9753 29.1613C98.2778 29.7726 98.4526 30.4378 98.4894 31.1172H87.588ZM101.424 33.5999C101.494 33.1621 101.522 32.7188 101.508 32.2758C101.514 30.7573 101.17 29.2573 100.502 27.8896C99.8599 26.5822 98.8756 25.4679 97.6508 24.662C96.3512 23.8456 94.8295 23.4413 93.2903 23.5034C91.7043 23.4935 90.1433 23.8929 88.762 24.662C87.4507 25.404 86.376 26.4934 85.6593 27.8068C84.907 29.1771 84.5312 30.7178 84.5692 32.2758C84.5312 33.8338 84.907 35.3745 85.6593 36.7447C86.376 38.0582 87.4507 39.1475 88.762 39.8896C90.1433 40.6587 91.7043 41.0581 93.2903 41.0482C95.0169 41.0647 96.7096 40.5751 98.1539 39.6413C99.4602 38.7642 100.434 37.4831 100.921 35.9999H97.9024C97.5438 36.7677 96.9193 37.3839 96.1414 37.7379C95.0914 38.2572 93.9157 38.4781 92.7458 38.3758C91.5758 38.2735 90.4578 37.852 89.5167 37.1585C88.9717 36.7216 88.5205 36.1819 88.1893 35.5709C87.8582 34.9598 87.6537 34.2898 87.588 33.5999H101.424ZM84.1499 23.9999H80.8795V18.7034H77.9864V23.9999H74.6322V26.8137H77.9864V40.5516H80.9214V26.7723H84.1918L84.1499 23.9999ZM63.7308 38.193C62.6768 38.2018 61.6379 37.9455 60.712 37.4482C59.8088 36.9293 59.0575 36.1879 58.5317 35.2965C58.0362 34.3795 57.777 33.3563 57.777 32.3172C57.777 31.278 58.0362 30.2548 58.5317 29.3379C59.0339 28.4287 59.7908 27.6817 60.712 27.1861C61.6411 26.6971 62.6779 26.4413 63.7308 26.4413C64.7838 26.4413 65.8206 26.6971 66.7497 27.1861C67.6529 27.705 68.4041 28.4465 68.9299 29.3379C69.4255 30.2548 69.6846 31.278 69.6846 32.3172C69.6846 33.3563 69.4255 34.3795 68.9299 35.2965C68.4278 36.2056 67.6708 36.9526 66.7497 37.4482C65.8317 37.9651 64.7873 38.2227 63.7308 38.193ZM69.7266 17.3792V26.8137C69.0346 25.7808 68.0847 24.9412 66.9685 24.3759C65.8522 23.8106 64.6072 23.5386 63.3535 23.5861C61.8749 23.5875 60.4249 23.9881 59.1607 24.7447C57.8679 25.5102 56.7988 26.5938 56.058 27.8896C55.2883 29.2266 54.8837 30.738 54.8837 32.2758C54.8837 33.8135 55.2883 35.3249 56.058 36.662C56.7988 37.9577 57.8679 39.0414 59.1607 39.8068C60.4249 40.5634 61.8749 40.9641 63.3535 40.9654C64.6349 41.0058 65.9053 40.7209 67.0432 40.1379C68.1065 39.5436 69.023 38.7239 69.7266 37.7379V40.5516H72.6616V17.3792H69.7266ZM43.3118 38.2344C42.2577 38.2432 41.2188 37.9869 40.2929 37.4896C39.3897 36.9707 38.6385 36.2292 38.1127 35.3379C37.6172 34.4209 37.358 33.3977 37.358 32.3585C37.358 31.3194 37.6172 30.2962 38.1127 29.3792C38.6148 28.4701 39.3718 27.7231 40.2929 27.2275C41.222 26.7385 42.2588 26.4827 43.3118 26.4827C44.3647 26.4827 45.4015 26.7385 46.3306 27.2275C47.2338 27.7464 47.9851 28.4878 48.5109 29.3792C49.0064 30.2962 49.2656 31.3194 49.2656 32.3585C49.2656 33.3977 49.0064 34.4209 48.5109 35.3379C48.0087 36.247 47.2518 36.994 46.3306 37.4896C45.4126 38.0064 44.3682 38.2641 43.3118 38.2344ZM49.2656 23.9999V26.8137C48.5736 25.7808 47.6238 24.9412 46.5075 24.3759C45.3912 23.8106 44.1462 23.5386 42.8925 23.5861C41.3858 23.5908 39.9076 23.9921 38.6105 24.7485C37.3133 25.505 36.2441 26.5893 35.5131 27.8896C34.7435 29.2266 34.3389 30.738 34.3389 32.2758C34.3389 33.8135 34.7435 35.3249 35.5131 36.662C36.2441 37.9623 37.3133 39.0465 38.6105 39.803C39.9076 40.5595 41.3858 40.9608 42.8925 40.9654C44.1739 41.0058 45.4444 40.7209 46.5822 40.1379C47.6455 39.5436 48.562 38.7239 49.2656 37.7379V40.5516H52.2006V23.9999H49.2656Z" fill="black"/>
</svg>
