<svg width="181" height="38" viewBox="0 0 181 38" fill="none" xmlns="http://www.w3.org/2000/svg">
<path d="M2.28613 36.1906L5.63077 31.7445L2.48998 28.3499H3.44882L7.9637 33.3442V28.3499H8.7187V33.3442L13.2336 28.3499H14.1924L11.0366 31.7445L14.3962 36.1906H13.4676L10.5609 32.2852L8.7187 34.2679V36.1906H7.9637V34.2679L6.12151 32.2702L3.21478 36.1906H2.28613ZM16.2309 36.1906V28.3499H16.9935V35.1917L22.3388 28.3499H23.1013V36.1906H22.3388V29.3487L16.9935 36.1906H16.2309ZM24.5963 36.1906L24.7397 35.4996C24.9864 35.5697 25.1851 35.6047 25.3362 35.6047C25.5073 35.6047 25.6507 35.5922 25.7665 35.5672C25.8873 35.5371 26.0156 35.4695 26.1515 35.3644C26.2875 35.2593 26.4007 35.1116 26.4913 34.9214C26.5819 34.7311 26.67 34.4682 26.7555 34.1328C26.8461 33.7973 26.9166 33.3918 26.9669 32.9161C27.0223 32.4354 27.0676 31.8471 27.1028 31.1512C27.1381 30.4552 27.1582 29.6592 27.1632 28.7629V28.3499H32.5313V36.1906H31.7687V29.0258H27.888V29.2361C27.888 30.1523 27.8654 30.9659 27.8201 31.6769C27.7798 32.3829 27.7245 32.9837 27.654 33.4793C27.5886 33.9751 27.4979 34.3981 27.3822 34.7485C27.2664 35.0941 27.1481 35.3694 27.0273 35.5747C26.9065 35.775 26.7555 35.9327 26.5744 36.0479C26.3932 36.158 26.2195 36.2281 26.0534 36.2581C25.8923 36.2932 25.696 36.3107 25.4645 36.3107C25.1776 36.3107 24.8881 36.2706 24.5963 36.1906ZM34.8717 32.2702C34.8717 31.7245 34.9749 31.2012 35.1813 30.7006C35.3877 30.1999 35.667 29.7643 36.0194 29.3938C36.3716 29.0183 36.802 28.7204 37.3104 28.5001C37.8187 28.2748 38.3598 28.1621 38.9337 28.1621C39.6937 28.1621 40.3832 28.3499 41.0023 28.7254C41.6265 29.0959 42.1096 29.5966 42.4519 30.2274C42.7992 30.8533 42.9729 31.5342 42.9729 32.2702C42.9729 33.0012 42.7992 33.6797 42.4519 34.3055C42.1046 34.9313 41.6164 35.4345 40.9872 35.8151C40.3631 36.1906 39.6685 36.3783 38.9035 36.3783C38.3346 36.3783 37.7986 36.2682 37.2953 36.0479C36.7919 35.8276 36.3641 35.5322 36.0118 35.1617C35.6595 34.7912 35.3801 34.3555 35.1738 33.8549C34.9724 33.3491 34.8717 32.8209 34.8717 32.2702ZM35.6871 32.2702C35.6871 33.2165 35.9992 34.0201 36.6233 34.681C37.2525 35.3369 38.0226 35.6648 38.9337 35.6648C39.5074 35.6648 40.0409 35.5146 40.5342 35.2142C41.0274 34.9088 41.4201 34.4958 41.7121 33.9751C42.0039 33.4543 42.1499 32.8861 42.1499 32.2702C42.1499 31.3289 41.8328 30.5278 41.1986 29.8669C40.5644 29.201 39.7994 28.8681 38.9035 28.8681C38.3195 28.8681 37.781 29.0208 37.2877 29.3262C36.7945 29.6266 36.4044 30.0397 36.1175 30.5654C35.8306 31.0861 35.6871 31.6544 35.6871 32.2702ZM45.2982 36.1906V28.3499H46.0608V35.1917L51.4062 28.3499H52.1687V36.1906H51.4062V29.3487L46.0608 36.1906H45.2982ZM46.6497 25.3007L47.2839 25.1655C47.4852 25.9115 47.9684 26.2846 48.7335 26.2846C49.5036 26.2846 49.9893 25.9115 50.1906 25.1655L50.8248 25.3007C50.7292 25.8114 50.4901 26.2345 50.1075 26.5699C49.725 26.9054 49.267 27.0731 48.7335 27.0731C48.2 27.0731 47.7419 26.9054 47.3593 26.5699C46.9819 26.2345 46.7453 25.8114 46.6497 25.3007ZM59.6733 36.1906V28.3499H60.4359V33.3742L65.3207 28.3499H66.3249L62.8745 31.8196L66.4306 36.1906H65.4717L62.3536 32.3603L60.4359 34.283V36.1906H59.6733ZM67.7291 32.2702C67.7291 31.7245 67.8324 31.2012 68.0387 30.7006C68.2451 30.1999 68.5244 29.7643 68.8768 29.3938C69.2291 29.0183 69.6595 28.7204 70.1678 28.5001C70.6762 28.2748 71.2172 28.1621 71.7911 28.1621C72.5511 28.1621 73.2406 28.3499 73.8597 28.7254C74.4839 29.0959 74.967 29.5966 75.3093 30.2274C75.6566 30.8533 75.8303 31.5342 75.8303 32.2702C75.8303 33.0012 75.6566 33.6797 75.3093 34.3055C74.962 34.9313 74.4738 35.4345 73.8447 35.8151C73.2205 36.1906 72.5259 36.3783 71.7609 36.3783C71.192 36.3783 70.6561 36.2682 70.1527 36.0479C69.6494 35.8276 69.2215 35.5322 68.8692 35.1617C68.5169 34.7912 68.2376 34.3555 68.0312 33.8549C67.8298 33.3491 67.7291 32.8209 67.7291 32.2702ZM68.5445 32.2702C68.5445 33.2165 68.8566 34.0201 69.4807 34.681C70.11 35.3369 70.88 35.6648 71.7911 35.6648C72.3648 35.6648 72.8984 35.5146 73.3916 35.2142C73.8848 34.9088 74.2775 34.4958 74.5695 33.9751C74.8613 33.4543 75.0073 32.8861 75.0073 32.2702C75.0073 31.3289 74.6903 30.5278 74.056 29.8669C73.4218 29.201 72.6568 28.8681 71.7609 28.8681C71.1769 28.8681 70.6384 29.0208 70.1452 29.3262C69.6519 29.6266 69.2618 30.0397 68.9749 30.5654C68.688 31.0861 68.5445 31.6544 68.5445 32.2702ZM78.1556 36.1906V28.3499H78.8427L82.059 32.8561L85.2753 28.3499H85.9547V36.1906H85.1923V29.6566L82.0212 33.9901L78.888 29.6566V36.1906H78.1556ZM88.8313 36.1906V28.3499H95.3923V36.1906H94.6301V29.0258H89.5938V36.1906H88.8313ZM96.8949 36.1906L97.0377 35.4996C97.2851 35.5697 97.4833 35.6047 97.6343 35.6047C97.8053 35.6047 97.949 35.5922 98.0645 35.5672C98.1855 35.5371 98.3138 35.4695 98.4502 35.3644C98.5857 35.2593 98.6994 35.1116 98.7895 34.9214C98.8804 34.7311 98.9686 34.4682 99.0541 34.1328C99.1442 33.7973 99.2151 33.3918 99.2651 32.9161C99.3206 32.4354 99.3661 31.8471 99.4016 31.1512C99.4361 30.4552 99.4561 29.6592 99.4616 28.7629V28.3499H104.83V36.1906H104.068V29.0258H100.187V29.2361C100.187 30.1523 100.164 30.9659 100.118 31.6769C100.078 32.3829 100.023 32.9837 99.9528 33.4793C99.8873 33.9751 99.7963 34.3981 99.6808 34.7485C99.5644 35.0941 99.4462 35.3694 99.3261 35.5747C99.2051 35.775 99.0541 35.9327 98.8731 36.0479C98.6912 36.158 98.5175 36.2281 98.352 36.2581C98.191 36.2932 97.9945 36.3107 97.7626 36.3107C97.4761 36.3107 97.1868 36.2706 96.8949 36.1906ZM107.17 32.2552C107.17 31.6944 107.266 31.1637 107.457 30.663C107.648 30.1573 107.908 29.7217 108.235 29.3562C108.562 28.9907 108.957 28.7003 109.42 28.4851C109.888 28.2698 110.383 28.1621 110.907 28.1621C111.627 28.1621 112.263 28.3449 112.817 28.7104C113.376 29.0709 113.802 29.5615 114.094 30.1824C114.385 30.8032 114.531 31.4992 114.531 32.2702C114.531 32.3953 114.526 32.498 114.516 32.5781H107.97C108.036 33.5194 108.365 34.2705 108.959 34.8312C109.558 35.3869 110.261 35.6648 111.066 35.6648C112.103 35.6648 113.004 35.2567 113.769 34.4407L114.297 34.8988C113.854 35.3745 113.376 35.74 112.863 35.9953C112.354 36.2506 111.745 36.3783 111.036 36.3783C110.523 36.3783 110.029 36.2781 109.556 36.0779C109.088 35.8776 108.678 35.6023 108.325 35.2518C107.973 34.8963 107.691 34.4607 107.479 33.945C107.274 33.4242 107.17 32.861 107.17 32.2552ZM107.97 31.9023H113.709C113.683 31.4967 113.605 31.1161 113.474 30.7607C113.343 30.4002 113.165 30.0772 112.938 29.7918C112.712 29.5014 112.42 29.2736 112.062 29.1084C111.71 28.9382 111.315 28.8531 110.877 28.8531C110.102 28.8531 109.44 29.1434 108.892 29.7242C108.348 30.305 108.04 31.031 107.97 31.9023ZM116.736 36.1906V28.3499H117.499V33.3742L122.383 28.3499H123.387L119.937 31.8196L123.493 36.1906H122.534L119.416 32.3603L117.499 34.283V36.1906H116.736ZM124.792 32.2702C124.792 31.5292 124.968 30.8458 125.32 30.2199C125.673 29.5891 126.156 29.0884 126.77 28.7179C127.389 28.3474 128.069 28.1621 128.808 28.1621C130.036 28.1621 131.083 28.6503 131.949 29.6266L131.42 30.1598C131.018 29.7493 130.613 29.4313 130.205 29.206C129.802 28.9807 129.332 28.8681 128.794 28.8681C128.22 28.8681 127.689 29.0208 127.2 29.3262C126.712 29.6266 126.324 30.0397 126.038 30.5654C125.75 31.0861 125.607 31.6544 125.607 32.2702C125.607 33.2165 125.921 34.0201 126.551 34.681C127.18 35.3369 127.948 35.6648 128.854 35.6648C129.795 35.6648 130.668 35.2192 131.473 34.328L132.024 34.8237C131.587 35.3194 131.111 35.7023 130.597 35.9728C130.09 36.2431 129.493 36.3783 128.808 36.3783C128.063 36.3783 127.381 36.1955 126.763 35.8301C126.149 35.4596 125.665 34.9613 125.313 34.3355C124.965 33.7046 124.792 33.0162 124.792 32.2702Z" fill="white"/>
<path d="M16.8249 19.5754C16.0245 20.1593 15.0506 20.5972 13.9034 20.8891C12.7829 21.2076 11.6223 21.3668 10.4217 21.3668C8.82084 21.3668 7.46016 21.1147 6.3396 20.6105C5.24572 20.1062 4.35194 19.4029 3.65825 18.5006C2.96457 17.5716 2.45765 16.457 2.13749 15.1566C1.84401 13.8561 1.69727 12.423 1.69727 10.8571C1.69727 7.48662 2.45765 4.899 3.97841 3.09427C5.49918 1.26303 7.71362 0.347412 10.6218 0.347412C12.0892 0.347412 13.2631 0.466841 14.1436 0.705698C15.0506 0.944555 15.8644 1.24973 16.5848 1.62132L15.3442 5.84113C14.7305 5.54916 14.1168 5.3236 13.5032 5.16436C12.9162 5.00513 12.2359 4.92551 11.4622 4.92551C10.0215 4.92551 8.92757 5.40322 8.18052 6.35865C7.43348 7.28757 7.05996 8.78703 7.05996 10.8571C7.05996 11.7064 7.15334 12.4893 7.3401 13.2059C7.52687 13.9225 7.80701 14.5461 8.18052 15.0769C8.55405 15.6078 9.03429 16.0324 9.62128 16.3508C10.2349 16.6428 10.9419 16.7887 11.7423 16.7887C12.6228 16.7887 13.3698 16.6826 13.9835 16.4703C14.5971 16.2314 15.1441 15.9527 15.6243 15.6343L16.8249 19.5754ZM32.0172 11.7329L32.2173 8.90646H32.0972L30.3763 11.8126L23.2528 20.8095H19.9711V0.904745H25.1737V10.3794L24.9336 13.0865H25.0937L26.7345 10.26L33.9381 0.904745H37.2198V20.8095H32.0172V11.7329ZM56.1862 5.48284H50.5434V20.8095H45.1807V5.48284H39.5379V0.904745H56.1862V5.48284ZM70.5522 11.7329L70.7523 8.90646H70.6322L68.9113 11.8126L61.7878 20.8095H58.5061V0.904745H63.7087V10.3794L63.4686 13.0865H63.6287L65.2695 10.26L72.4731 0.904745H75.7548V20.8095H70.5522V11.7329ZM112.084 5.48284H105.761V20.8095H100.559V0.904745H117.287V20.8095H112.084V5.48284ZM121.738 2.05922C122.805 1.58151 124.072 1.20992 125.54 0.944555C127.007 0.652588 128.542 0.506649 130.143 0.506649C131.53 0.506649 132.69 0.679188 133.624 1.02417C134.558 1.34265 135.292 1.80706 135.825 2.41751C136.386 3.02795 136.772 3.75773 136.986 4.60703C137.226 5.45633 137.346 6.41176 137.346 7.47332C137.346 8.64109 137.306 9.82208 137.226 11.0164C137.146 12.1841 137.092 13.3386 137.066 14.4798C137.066 15.621 137.106 16.7356 137.186 17.8238C137.266 18.8854 137.466 19.8939 137.786 20.8493H133.544L132.704 18.1025H132.504C131.97 18.9252 131.223 19.6417 130.263 20.2522C129.329 20.836 128.114 21.128 126.621 21.128C125.687 21.128 124.846 20.9953 124.1 20.7299C123.352 20.4379 122.712 20.0398 122.179 19.5356C121.645 19.0048 121.231 18.3944 120.938 17.7044C120.644 16.9878 120.498 16.1916 120.498 15.3158C120.498 14.095 120.764 13.0732 121.298 12.2505C121.858 11.4012 122.645 10.7244 123.659 10.2202C124.7 9.68935 125.927 9.33107 127.341 9.14532C128.782 8.93297 130.383 8.86665 132.144 8.94627C132.33 7.46002 132.224 6.39846 131.823 5.76151C131.423 5.09805 130.529 4.76627 129.142 4.76627C128.102 4.76627 126.994 4.8724 125.82 5.08475C124.673 5.29709 123.726 5.57576 122.979 5.92075L121.738 2.05922ZM128.342 16.8684C129.382 16.8684 130.209 16.6428 130.823 16.1916C131.436 15.7139 131.89 15.2097 132.184 14.6788V12.0912C131.356 12.0116 130.556 11.9983 129.782 12.0514C129.035 12.1045 128.368 12.224 127.781 12.4097C127.194 12.5954 126.727 12.8609 126.381 13.2059C126.033 13.5509 125.86 13.9888 125.86 14.5196C125.86 15.2627 126.073 15.8466 126.501 16.2712C126.954 16.6693 127.568 16.8684 128.342 16.8684ZM141.712 0.904745H145.514L146.114 3.29332H146.274C146.968 2.28478 147.781 1.5417 148.716 1.06398C149.676 0.586269 150.837 0.347412 152.197 0.347412C154.705 0.347412 156.586 1.1436 157.84 2.73598C159.094 4.30185 159.721 6.83637 159.721 10.3396C159.721 12.0381 159.521 13.5775 159.121 14.9575C158.721 16.311 158.12 17.4655 157.32 18.4209C156.546 19.3764 155.585 20.1062 154.438 20.6105C153.318 21.1147 152.024 21.3668 150.557 21.3668C149.73 21.3668 149.049 21.3005 148.516 21.1678C147.982 21.0617 147.449 20.8758 146.915 20.6105V28.7714H141.712V0.904745ZM150.637 4.72646C149.622 4.72646 148.822 4.97862 148.235 5.48284C147.675 5.98706 147.235 6.74345 146.915 7.75198V16.0324C147.289 16.3243 147.689 16.5632 148.115 16.7489C148.569 16.9082 149.156 16.9878 149.876 16.9878C151.371 16.9878 152.491 16.4703 153.238 15.4352C153.985 14.3737 154.358 12.6353 154.358 10.2202C154.358 8.46856 154.065 7.11503 153.478 6.1596C152.891 5.20417 151.944 4.72646 150.637 4.72646ZM169.928 12.5689H168.527V20.8095H163.325V0.904745H168.527V9.38418L169.768 8.82684L174.45 0.904745H180.013L175.171 8.46856L173.13 9.98132L175.371 11.5339L180.774 20.8095H174.811L169.928 12.5689Z" fill="white"/>
<path d="M88.2261 14.4761C90.2354 14.4761 91.8643 12.8558 91.8643 10.8571C91.8643 8.85834 90.2354 7.23804 88.2261 7.23804C86.2168 7.23804 84.5879 8.85834 84.5879 10.8571C84.5879 12.8558 86.2168 14.4761 88.2261 14.4761Z" fill="#F1C650"/>
</svg>
