<svg width="110" height="45" viewBox="0 0 110 45" fill="none" xmlns="http://www.w3.org/2000/svg">
<path fill-rule="evenodd" clip-rule="evenodd" d="M20.667 1.74854L20.8406 2.97354C15.2981 14.1088 22.3657 13.2023 22.3657 13.2023L23.2584 13.043L23.3948 13.3125C36.5257 11.8425 43.7048 18.5923 43.7048 18.5923C44.6596 2.61829 20.667 1.74854 20.667 1.74854Z" fill="#F8B829"/>
<path d="M12.4211 39.3683C11.8631 43.0433 14.901 45.1748 15.3845 43.9988C16.7236 42.2715 17.1948 42.7738 17.8644 40.1768C18.1088 39.8543 18.3919 39.5622 18.7075 39.307C19.3854 38.6129 20.0384 37.9024 20.6666 37.1755C22.5196 35.1045 24.1025 32.8123 25.3783 30.3523C26.7939 27.8684 27.31 24.982 26.8415 22.1693C26.3343 20.7464 25.611 19.4081 24.6964 18.2003C24.4172 17.5679 24.2899 16.8803 24.3244 16.1913C24.2937 15.1605 23.9809 14.1572 23.4193 13.288C23.1293 12.9791 22.9087 12.6132 22.772 12.2142C22.6352 11.8152 22.5854 11.3921 22.6257 10.9728C22.7869 10.0418 22.7869 9.12302 22.9233 8.19202C23.0092 6.45235 22.6867 4.71662 21.9809 3.12052C21.9809 3.12052 21.113 1.60152 20.3442 1.98127C18.9755 1.1251 17.3847 0.679779 15.7648 0.699349C14.1448 0.718919 12.5655 1.20254 11.2184 2.09152C11.2184 2.09152 -6.53741 13.3003 9.47006 34.8358C8.98649 37.6288 10.71 40.5075 12.0491 42.4185" fill="#005D86"/>
<path d="M20.5918 14.7826L18.1863 3.95362C18.1863 3.95362 16.7728 -0.211384 13.053 5.04387L12.433 4.23537C9.01085 9.02512 4.37351 14.7704 5.40265 20.9934C5.55234 22.142 5.95385 23.2446 6.57916 24.2241C7.20448 25.2037 8.03857 26.0367 9.02324 26.6651C10.4743 27.6606 12.231 28.1257 13.9915 27.9804C15.7519 27.8351 17.4062 27.0885 18.6699 25.8689C20.6042 24.2764 22.1789 21.0424 20.5918 14.7826Z" fill="white"/>
<path fill-rule="evenodd" clip-rule="evenodd" d="M23.3944 13.3495C23.3944 13.3495 34.8761 11.5855 43.7044 18.6293C43.7044 18.6293 35.3969 7.86153 22.1544 9.85828C22.1668 9.85828 21.2121 12.5043 23.3944 13.3495Z" fill="#F19320"/>
<path d="M43.7046 18.6292C43.9379 15.8507 43.2267 13.0745 41.6835 10.7402C41.5595 10.581 40.6047 12.639 40.5923 12.8227C40.5416 13.6811 40.7533 14.5347 41.1999 15.2727C41.8323 16.4242 43.3698 17.3675 43.6798 18.6047" fill="#E95253"/>
<path d="M0.443359 34.1865C2.06629 34.7967 3.83716 34.9119 5.52707 34.5173C7.89533 34.8358 9.13526 35.5708 11.9623 35.8893C15.4217 35.8893 18.8563 35.5218 22.2909 35.2033C23.4068 35.1053 25.8867 34.9705 26.829 35.8403C27.3746 36.3425 27.2134 37.7023 27.2258 38.4128C25.1761 37.6406 23.018 37.1861 20.8278 37.0653C18.3479 37.0653 15.7813 37.1755 13.2642 37.151C11.5473 37.156 9.83345 37.0084 8.14332 36.71C6.56861 36.416 5.0187 36.0118 3.44399 35.6933C2.30325 35.4483 0.914532 35.2523 0.443359 34.1865Z" fill="#9B5F48"/>
<path d="M22.551 36.3914C22.551 36.7834 22.2039 37.6164 21.8815 37.6164C21.5591 37.6164 21.2119 36.7956 21.2119 36.3914V35.0071C21.2119 34.6151 21.4599 34.2231 21.7823 34.2231C21.9773 34.2526 22.1566 34.3459 22.2915 34.488C22.4264 34.6302 22.5091 34.813 22.5262 35.0071L22.551 36.3914Z" fill="#969595"/>
<path d="M21.2121 36.5875C21.2121 36.8938 20.9641 37.5308 20.7037 37.5308C20.4433 37.5308 20.1953 36.8938 20.1953 36.5875V35.4973C20.1953 35.191 20.3813 34.8848 20.6417 34.8848C20.7908 34.9076 20.9271 34.9815 21.0268 35.0934C21.1264 35.2053 21.1832 35.3482 21.1873 35.4973L21.2121 36.5875Z" fill="#838383"/>
<path d="M8.91211 36.3914C8.91211 36.7834 9.25929 37.6164 9.58167 37.6164C9.90405 37.6164 10.2512 36.7956 10.2512 36.3914V35.0071C10.2512 34.6151 10.0032 34.2231 9.68086 34.2231C9.48589 34.2526 9.30657 34.3459 9.17166 34.488C9.03676 34.6302 8.95409 34.813 8.93691 35.0071L8.91211 36.3914Z" fill="#969595"/>
<path d="M10.251 36.5875C10.251 36.8938 10.499 37.5308 10.7593 37.5308C11.0197 37.5308 11.2677 36.8938 11.2677 36.5875V35.4973C11.2677 35.191 11.0817 34.8848 10.8213 34.8848C10.6722 34.9076 10.536 34.9815 10.4363 35.0934C10.3366 35.2053 10.2798 35.3482 10.2758 35.4973L10.251 36.5875Z" fill="#838383"/>
<path d="M23.1214 9.61286C23.419 8.91461 23.9646 6.74636 22.4519 3.01011C22.1791 2.43436 21.4971 1.09911 20.0464 1.78511C19.8356 2.10361 22.6627 3.85536 22.0799 10.0294C22.0799 10.0294 21.3483 12.6141 23.3942 13.3369C23.0898 12.7013 22.933 12.0065 22.9354 11.3034C22.8921 10.7334 22.9552 10.1604 23.1214 9.61286ZM22.985 9.85786C22.985 9.85786 22.985 9.85786 22.9974 9.85786H22.985Z" fill="#003B55"/>
<path d="M20.667 7.33433C21.2126 10.2253 19.7495 11.8668 16.848 11.9036C14.6162 11.9036 11.3675 11.4381 11.0576 8.74308C10.7972 6.40333 12.2975 3.23058 14.7029 2.52008C18.0384 1.51558 20.1462 4.49233 20.6794 7.33433H20.667Z" fill="#F8B829"/>
<path d="M18.8934 7.12647C19.0079 7.46671 19.032 7.83029 18.9636 8.18241C18.8951 8.53452 18.7364 8.86338 18.5024 9.13752C18.2685 9.41165 17.9673 9.62187 17.6276 9.74806C17.2879 9.87425 16.9211 9.91218 16.5623 9.85822C15.1488 9.85822 13.1773 9.52747 13.0533 7.82472C12.9869 7.05025 13.1708 6.27493 13.5785 5.61021C13.9862 4.94548 14.5968 4.42558 15.3224 4.12522C17.3187 3.57397 18.5586 5.35022 18.8562 7.07747L18.8934 7.12647Z" fill="#005D86"/>
<path fill-rule="evenodd" clip-rule="evenodd" d="M17.8026 6.75872C17.8026 7.21519 17.619 7.65297 17.2923 7.97574C16.9656 8.29852 16.5225 8.47985 16.0605 8.47985C15.5984 8.47985 15.1553 8.29852 14.8286 7.97574C14.5019 7.65297 14.3184 7.21519 14.3184 6.75872C14.3184 6.30225 14.5019 5.86448 14.8286 5.5417C15.1553 5.21893 15.5984 5.0376 16.0605 5.0376C16.5225 5.0376 16.9656 5.21893 17.2923 5.5417C17.619 5.86448 17.8026 6.30225 17.8026 6.75872Z" fill="#151410"/>
<path fill-rule="evenodd" clip-rule="evenodd" d="M16.3021 5.66841C16.3021 5.97466 16.0293 5.66841 16.0293 5.66841C16.0293 5.66841 16.3021 5.34991 16.3021 5.66841Z" fill="white"/>
<path fill-rule="evenodd" clip-rule="evenodd" d="M15.3224 5.65641C15.1488 5.65641 15.1116 5.84016 15.0868 6.03616C15.04 6.05374 14.9979 6.08145 14.9634 6.11725C14.9289 6.15305 14.9029 6.19604 14.8875 6.24304C14.872 6.29005 14.8674 6.33988 14.874 6.38887C14.8806 6.43787 14.8982 6.48478 14.9256 6.52616C14.9256 6.52616 15.7687 5.74216 15.8307 5.79116C15.7604 5.73463 15.6787 5.69342 15.5911 5.6702C15.5035 5.64698 15.4119 5.64228 15.3224 5.65641Z" fill="white"/>
<path d="M43.0353 33.917C43.133 33.9148 43.2301 33.9333 43.3199 33.9713C43.4098 34.0094 43.4903 34.0661 43.556 34.1375L45.0191 35.681C42.7997 38.474 38.5467 39.0988 35.2981 37.9105C33.6832 37.2582 32.3048 36.1402 31.3427 34.7023C30.3805 33.2645 29.8793 31.5735 29.9044 29.85C29.7709 28.1039 30.1636 26.3578 31.033 24.8318C31.9024 23.3058 33.2095 22.0682 34.7897 21.275C36.4204 20.5252 38.239 20.2682 40.0171 20.5363C41.7952 20.8044 43.4534 21.5856 44.7836 22.7818L43.5436 24.4478C42.8741 25.4033 41.8449 24.3498 41.1506 24.019C40.1204 23.5499 38.9717 23.3963 37.8524 23.578C36.7035 23.8128 35.6688 24.4249 34.9169 25.3146C34.1649 26.2043 33.7399 27.3193 33.711 28.478C33.5284 29.576 33.6356 30.7019 34.0222 31.747C34.4089 32.7921 35.0619 33.7209 35.9181 34.4438C36.8964 35.0913 38.061 35.4079 39.2369 35.3461C40.4129 35.2842 41.5368 34.8473 42.4401 34.1008C42.6121 33.9755 42.8216 33.9108 43.0353 33.917Z" fill="white"/>
<path d="M50.0407 20.1851V38.2416H46.6309V20.1851H50.0407Z" fill="white"/>
<path d="M56.315 25.7583V38.2533H52.9424V25.7583H56.315Z" fill="white"/>
<path d="M56.7242 22.1326C56.7242 24.7419 52.5332 24.7541 52.5332 22.1326C52.5332 19.5111 56.7242 19.5111 56.7242 22.1326Z" fill="white"/>
<path d="M68.3799 28.5393C67.8467 29.2498 67.2763 28.8088 66.6812 28.5393C65.9475 28.1301 65.0893 27.9953 64.2633 28.1596C62.5522 28.5393 62.0562 30.2666 62.0066 31.8346C61.957 33.4026 62.2918 35.1911 63.8541 35.8158C64.2523 35.9661 64.6769 36.0359 65.1029 36.0212C65.5288 36.0065 65.9475 35.9075 66.334 35.7301C66.9416 35.4483 67.8095 34.3826 68.4419 35.2033L69.409 36.4283C68.5353 37.3427 67.4137 37.9894 66.1781 38.2914C64.9425 38.5933 63.6451 38.5376 62.4406 38.1311C61.2535 37.6593 60.2432 36.8362 59.5484 35.7747C58.8535 34.7131 58.5081 33.4652 58.5596 32.2021C58.4439 30.9125 58.7406 29.6195 59.4079 28.5053C60.0752 27.3911 61.0796 26.5118 62.2794 25.9913C63.4595 25.5417 64.7453 25.4355 65.9846 25.6851C67.2239 25.9348 68.3649 26.5299 69.2726 27.4001L68.3799 28.5393Z" fill="white"/>
<path d="M74.4679 20.1851V30.4383H75.0259C75.1956 30.4463 75.3646 30.411 75.5166 30.3359C75.6685 30.2609 75.7985 30.1485 75.8938 30.0096L78.6837 26.3346C78.8122 26.1551 78.9835 26.0098 79.1825 25.9115C79.3815 25.8132 79.602 25.765 79.8244 25.7711H82.9118L79.3036 30.3036C79.0373 30.6645 78.6999 30.9687 78.3117 31.1978C78.6769 31.4724 78.9808 31.8186 79.2044 32.2146L83.1102 38.2293H80.0724C79.8472 38.245 79.622 38.1997 79.4209 38.0982C79.2199 37.9968 79.0508 37.843 78.9317 37.6536L76.0798 33.0721C75.9938 32.9135 75.8615 32.7843 75.7 32.7013C75.5385 32.6182 75.3554 32.5852 75.1747 32.6066H74.4679V38.2416H71.1201V20.1851H74.4679Z" fill="white"/>
<path d="M87.8459 20.1851V30.4383H88.4039C88.5736 30.4463 88.7426 30.411 88.8946 30.3359C89.0466 30.2609 89.1765 30.1485 89.2719 30.0096L92.0617 26.3346C92.1902 26.1551 92.3616 26.0098 92.5606 25.9115C92.7596 25.8132 92.98 25.765 93.2024 25.7711H96.2899L92.6569 30.3281C92.3905 30.689 92.0531 30.9932 91.6649 31.2223C92.0301 31.4969 92.3341 31.8431 92.5577 32.2391L96.4635 38.2538H93.438C93.2128 38.2695 92.9876 38.2242 92.7866 38.1227C92.5855 38.0213 92.4164 37.8675 92.2973 37.6781L89.4579 33.0843C89.3719 32.9258 89.2395 32.7966 89.078 32.7135C88.9165 32.6305 88.7335 32.5975 88.5527 32.6188H87.8459V38.2538H84.4609V20.1851H87.8459Z" fill="white"/>
<path d="M102.738 41.5977C102.652 41.8119 102.498 41.9929 102.299 42.1142C102.1 42.2355 101.867 42.2906 101.635 42.2715H99.1549L101.511 37.2L96.4395 25.7095H99.4029C99.6036 25.7004 99.8022 25.7534 99.9711 25.8609C100.14 25.9685 100.271 26.1254 100.345 26.3097L102.751 32.3C102.924 32.7737 103.073 33.2473 103.197 33.721C103.346 33.2432 103.519 32.7655 103.705 32.2877L105.937 26.322C106.012 26.1427 106.139 25.9896 106.303 25.8825C106.466 25.7755 106.659 25.7195 106.855 25.7217H109.558L102.738 41.5977Z" fill="white"/>
</svg>
