<svg width="32" height="33" viewBox="0 0 32 33" fill="none" xmlns="http://www.w3.org/2000/svg">
<path fill-rule="evenodd" clip-rule="evenodd" d="M4.95269 31.7709H0.000488281C0.000488281 31.7709 6.37358 12.1546 8.47989 5.67405C9.46534 2.64198 12.2904 0.589111 15.478 0.589111H24.3314C27.0013 0.589111 29.2295 1.71685 30.6149 3.62253C31.9993 5.52832 32.3921 7.96683 31.5847 10.4545C30.7764 12.9422 30.0128 15.2905 29.3138 17.4421C28.3701 20.3473 25.7554 22.3491 22.7324 22.5119C22.7324 22.5119 22.7168 22.5068 26.9523 9.4702C27.3263 8.31975 27.1898 7.19368 26.6023 6.38605C26.0158 5.57853 25.0262 5.1006 23.7168 5.1006H16.1197C14.628 5.1006 13.3061 6.06125 12.8446 7.48014L4.95269 31.7709Z" fill="#F0145A"/>
<path fill-rule="evenodd" clip-rule="evenodd" d="M22.7321 22.5121H12.7505L17.1486 9.13599L22.1243 9.16539L19.2351 17.9868L24.196 17.9897L22.7321 22.5121Z" fill="url(#paint0_linear_0_10232)"/>
<defs>
<linearGradient id="paint0_linear_0_10232" x1="12.7498" y1="19.9501" x2="23.8533" y2="25.7536" gradientUnits="userSpaceOnUse">
<stop stop-color="#F0145A"/>
<stop offset="1" stop-color="#693264"/>
</linearGradient>
</defs>
</svg>
