<svg width="22" height="24" viewBox="0 0 22 24" fill="none" xmlns="http://www.w3.org/2000/svg">
<path fill-rule="evenodd" clip-rule="evenodd" d="M15.498 13.3507H9.38794L12.0802 5.18481L15.1259 5.20277L13.3574 10.5881L16.3941 10.5899L15.498 13.3507Z" fill="url(#paint0_linear_0_10175)"/>
<path fill-rule="evenodd" clip-rule="evenodd" d="M3.02421 23.9512H0C0 23.9512 5.50834 7.04374 6.79462 3.0969C7.39641 1.25027 9.12162 0 11.0682 0H16.4748C18.1052 0 19.4659 0.686832 20.312 1.84746C21.1574 3.00814 21.3972 4.49328 20.9042 6.00835C20.4106 7.52343 19.9443 8.95362 19.5174 10.264C18.9411 12.0334 17.3444 13.2526 15.4983 13.3517C15.4983 13.3517 15.4888 13.3486 18.0753 5.40888C18.3037 4.70822 18.2203 4.0224 17.8616 3.53053C17.5034 3.03872 16.8991 2.74765 16.0994 2.74765H11.4601C10.5491 2.74765 9.74185 3.33271 9.46004 4.19687L3.02421 23.9512Z" fill="#F0145A"/>
<defs>
<linearGradient id="paint0_linear_0_10175" x1="9.38751" y1="11.7867" x2="16.1764" y2="15.3446" gradientUnits="userSpaceOnUse">
<stop stop-color="#F0145A"/>
<stop offset="1" stop-color="#693264"/>
</linearGradient>
</defs>
</svg>
