<svg width="84" height="38" viewBox="0 0 84 38" fill="none" xmlns="http://www.w3.org/2000/svg">
<path d="M8.98123 0.562256C8.88748 1.26538 8.82498 1.98413 8.79373 2.71851C8.76248 3.43726 8.74686 4.18726 8.74686 4.96851C8.74686 6.35913 8.81717 7.78101 8.95779 9.23413C9.09842 10.6716 9.30936 12.1091 9.59061 13.5466C9.87186 14.9841 10.2234 16.3982 10.6453 17.7888C11.0672 19.1638 11.5515 20.4763 12.0984 21.7263C12.6609 22.9763 13.2859 24.1404 13.9734 25.2185C14.6765 26.2966 15.45 27.2498 16.2937 28.0779C17.2156 27.1248 17.9578 26.031 18.5203 24.7966C19.0984 23.5466 19.5437 22.2498 19.8562 20.906C20.1844 19.5466 20.4031 18.1794 20.5125 16.8044C20.6219 15.4294 20.6844 14.1248 20.7 12.8904H25.8562C25.8562 14.1248 25.9109 15.4216 26.0203 16.781C26.1297 18.1404 26.3406 19.4919 26.6531 20.8357C26.9656 22.1638 27.4031 23.4529 27.9656 24.7029C28.5281 25.9373 29.2625 27.0466 30.1687 28.031C31.4812 26.6091 32.614 24.9998 33.5672 23.2029C34.5203 21.3904 35.3094 19.4919 35.9344 17.5076C36.5594 15.5232 37.0203 13.4919 37.3172 11.4138C37.614 9.33569 37.7625 7.29663 37.7625 5.29663C37.7625 3.62476 37.6687 2.01538 37.4812 0.468506C38.8562 0.531006 40.0828 0.624756 41.1609 0.749756C42.2547 0.874756 43.2 0.999756 43.9969 1.12476C44.9031 1.28101 45.7156 1.43726 46.4344 1.59351V7.49976C45.9187 7.32788 45.4109 7.19507 44.9109 7.10132C44.4265 6.99194 43.95 6.87476 43.4812 6.74976C43.4812 10.1091 43.1531 13.2263 42.4969 16.1013C41.8562 18.9607 40.9578 21.6326 39.8015 24.1169C38.6453 26.6013 37.2625 28.906 35.6531 31.031C34.0437 33.156 32.2781 35.1404 30.3562 36.9841C28.9812 35.656 27.7 34.1716 26.5125 32.531C25.3406 30.8904 24.2625 29.031 23.2781 26.9529C22.2625 29.031 21.1531 30.8982 19.95 32.5544C18.7625 34.2107 17.4812 35.7029 16.1062 37.031C14.2 35.1873 12.4578 33.2029 10.8797 31.0779C9.30154 28.9529 7.94998 26.6482 6.82498 24.1638C5.69998 21.6794 4.82498 19.0076 4.19998 16.1482C3.57498 13.2732 3.26248 10.156 3.26248 6.79663C2.69998 6.92163 2.15311 7.03882 1.62186 7.14819C1.10623 7.24194 0.590607 7.37476 0.0749817 7.54663V1.59351C0.0749817 1.60913 0.278107 1.57788 0.684357 1.49976C1.10623 1.42163 1.69998 1.32788 2.46561 1.21851C3.24686 1.09351 4.18436 0.976318 5.27811 0.866943C6.37186 0.741943 7.60623 0.640381 8.98123 0.562256Z" fill="#34547A"/>
<path d="M66.1687 0.281006C68.575 0.281006 70.8406 0.491943 72.9656 0.913818C75.0906 1.33569 76.95 1.92163 78.5437 2.67163C80.1375 3.42163 81.3953 4.32788 82.3172 5.39038C83.239 6.43726 83.7 7.59351 83.7 8.85913V27.5154C83.7 28.781 83.239 29.9451 82.3172 31.0076C81.3953 32.0544 80.1375 32.9529 78.5437 33.7029C76.95 34.4529 75.0906 35.0388 72.9656 35.4607C70.8406 35.8826 68.575 36.0935 66.1687 36.0935C64.825 36.0935 63.45 36.0466 62.0437 35.9529C60.6375 35.8435 59.2703 35.7107 57.9422 35.5544C56.6297 35.3826 55.3953 35.1873 54.239 34.9685C53.0828 34.7498 52.0906 34.5154 51.2625 34.2654V2.10913C52.0906 1.85913 53.0828 1.62476 54.239 1.40601C55.3953 1.18726 56.6297 0.999756 57.9422 0.843506C59.2703 0.671631 60.6375 0.538818 62.0437 0.445068C63.45 0.335693 64.825 0.281006 66.1687 0.281006ZM66.2625 5.57788C64.8406 5.57788 63.6062 5.62476 62.5594 5.71851C61.5125 5.79663 60.614 5.90601 59.864 6.04663C59.114 6.17163 58.489 6.31226 57.989 6.46851C57.5047 6.60913 57.1062 6.73413 56.7937 6.84351V29.531C57.1062 29.656 57.5047 29.7888 57.989 29.9294C58.489 30.0701 59.114 30.2107 59.864 30.3513C60.614 30.4763 61.5125 30.5857 62.5594 30.6794C63.6062 30.7576 64.8406 30.7966 66.2625 30.7966C68.0125 30.7966 69.5828 30.656 70.9734 30.3748C72.3797 30.0935 73.5594 29.7185 74.5125 29.2498C75.4812 28.781 76.2234 28.2419 76.739 27.6326C77.2547 27.0076 77.5125 26.3591 77.5125 25.6873V10.6873C77.5125 10.0154 77.2547 9.37476 76.739 8.76538C76.2234 8.14038 75.4812 7.59351 74.5125 7.12476C73.5594 6.65601 72.3797 6.28101 70.9734 5.99976C69.5828 5.71851 68.0125 5.57788 66.2625 5.57788Z" fill="#34547A"/>
</svg>
