<svg width="358" height="235" viewBox="0 0 358 235" fill="none" xmlns="http://www.w3.org/2000/svg">
<g clip-path="url(#clip0_1:191)">
<path d="M337.633 226.05H24.4333C20.2333 226.05 16.8333 222.65 16.8333 218.45V8.25002C16.8333 4.05002 20.2333 0.650024 24.4333 0.650024H337.633C341.833 0.650024 345.233 4.05002 345.233 8.25002V218.35C345.333 222.65 341.833 226.05 337.633 226.05Z" fill="#00D5E4"/>
<path d="M326.533 218.45C212.891 218.45 149.176 218.45 35.5333 218.45C31.3333 218.45 27.9333 215.05 27.9333 210.85V15.95C27.9333 11.75 31.3333 8.35004 35.5333 8.35004H326.533C330.733 8.35004 334.133 11.75 334.133 15.95V210.85C334.233 214.95 330.733 218.45 326.533 218.45Z" fill="#065090"/>
<path d="M115.933 29.55H75.7333V34.0501H115.933V29.55Z" fill="#FCFDFD"/>
<path d="M101.333 39.55H75.7333V44.05H101.333V39.55Z" fill="#FCFDFD"/>
<path d="M218.833 39.55H115.733V44.05H218.833V39.55Z" fill="#FCFDFD"/>
<path d="M282.833 39.55H228.833V44.05H282.833V39.55Z" fill="#FF6452"/>
<path d="M150.833 49.55H85.7333V54.05H150.833V49.55Z" fill="#00D050"/>
<path d="M267.833 49.55H170.833V54.05H267.833V49.55Z" fill="#FCFDFD"/>
<path d="M167.333 59.55H75.7333V64.05H167.333V59.55Z" fill="#FF6452"/>
<path d="M240.833 59.55H175.733V64.05H240.833V59.55Z" fill="#00D5E4"/>
<path d="M150.833 69.55H85.7333V74.05H150.833V69.55Z" fill="#FCFDFD"/>
<path d="M170.833 79.55H75.7333V84.05H170.833V79.55Z" fill="#FCFDFD"/>
<path d="M140.833 89.55H75.7333V94.05H140.833V89.55Z" fill="#FCFDFD"/>
<path d="M204.333 99.55H95.7333V104.05H204.333V99.55Z" fill="#FF6452"/>
<path d="M250.833 99.55H215.733V104.05H250.833V99.55Z" fill="#FCFDFD"/>
<path d="M300.833 99.55H265.733V104.05H300.833V99.55Z" fill="#FCFDFD"/>
<path d="M150.033 109.55H105.733V114.05H150.033V109.55Z" fill="#FCFDFD"/>
<path d="M164.833 119.55H105.733V124.05H164.833V119.55Z" fill="#FF6452"/>
<path d="M250.833 119.55H185.733V124.05H250.833V119.55Z" fill="#FCFDFD"/>
<path d="M292.833 119.55H265.733V124.05H292.833V119.55Z" fill="#FF6452"/>
<path d="M115.733 129.55H75.7333V134.05H115.733V129.55Z" fill="#FCFDFD"/>
<path d="M140.833 139.55H75.7333V144.05H140.833V139.55Z" fill="#FCFDFD"/>
<path d="M223.833 149.55H105.733V154.05H223.833V149.55Z" fill="#FCFDFD"/>
<path d="M308.833 149.55H235.733V154.05H308.833V149.55Z" fill="#00D5E4"/>
<path d="M145.833 159.55H105.733V164.05H145.833V159.55Z" fill="#FCFDFD"/>
<path d="M195.833 159.55H155.733V164.05H195.833V159.55Z" fill="#00D050"/>
<path d="M245.833 159.55H205.733V164.05H245.833V159.55Z" fill="#FCFDFD"/>
<path d="M140.833 169.55H75.7333V174.05H140.833V169.55Z" fill="#FCFDFD"/>
<path d="M160.833 179.55H95.7333V184.05H160.833V179.55Z" fill="#00D050"/>
<path d="M238.333 179.55H173.233V184.05H238.333V179.55Z" fill="#00D050"/>
<path d="M208.333 199.55H171.833V204.05H208.333V199.55Z" fill="#FCFDFD"/>
<path d="M192.333 189.55H95.7333V194.05H192.333V189.55Z" fill="#FCFDFD"/>
<path d="M50.6333 29.55H46.1333V34.0501H50.6333V29.55Z" fill="#5E94C1"/>
<path d="M50.6333 39.55H46.1333V44.05H50.6333V39.55Z" fill="#5E94C1"/>
<path d="M50.6333 49.55H46.1333V54.05H50.6333V49.55Z" fill="#5E94C1"/>
<path d="M50.6333 59.55H46.1333V64.05H50.6333V59.55Z" fill="#5E94C1"/>
<path d="M50.6333 69.55H46.1333V74.05H50.6333V69.55Z" fill="#5E94C1"/>
<path d="M50.6333 79.55H46.1333V84.05H50.6333V79.55Z" fill="#5E94C1"/>
<path d="M50.6333 89.55H46.1333V94.05H50.6333V89.55Z" fill="#5E94C1"/>
<path d="M50.6333 99.55H46.1333V104.05H50.6333V99.55Z" fill="#5E94C1"/>
<path d="M50.6333 109.55H46.1333V114.05H50.6333V109.55Z" fill="#5E94C1"/>
<path d="M50.6333 119.55H46.1333V124.05H50.6333V119.55Z" fill="#5E94C1"/>
<path d="M50.6333 129.55H46.1333V134.05H50.6333V129.55Z" fill="#5E94C1"/>
<path d="M50.6333 139.55H46.1333V144.05H50.6333V139.55Z" fill="#5E94C1"/>
<path d="M50.6333 149.55H46.1333V154.05H50.6333V149.55Z" fill="#5E94C1"/>
<path d="M50.6333 159.55H46.1333V164.05H50.6333V159.55Z" fill="#5E94C1"/>
<path d="M50.6333 169.55H46.1333V174.05H50.6333V169.55Z" fill="#5E94C1"/>
<path d="M50.6333 179.55H46.1333V184.05H50.6333V179.55Z" fill="#5E94C1"/>
<path d="M50.6333 189.55H46.1333V194.05H50.6333V189.55Z" fill="#5E94C1"/>
<path d="M50.6333 199.55H46.1333V204.05H50.6333V199.55Z" fill="#5E94C1"/>
<path d="M144.033 199.55H95.7333V204.05H144.033V199.55Z" fill="#FCFDFD"/>
<path d="M285.033 203.95L266.033 195.85V192.55L285.033 184.45V187.95L269.933 194.15L285.033 200.35V203.95Z" fill="#FCFDFD"/>
<path d="M298.433 179.65L290.133 208.35H287.333L295.633 179.65H298.433Z" fill="#FCFDFD"/>
<path d="M319.633 195.85L300.633 203.95V200.45L315.733 194.25L300.633 188.05V184.55L319.633 192.65V195.85Z" fill="#FCFDFD"/>
<path d="M337.333 234.35H20.3333C9.33331 234.35 0.333313 225.35 0.333313 214.35H357.333C357.333 225.45 348.333 234.35 337.333 234.35Z" fill="#00BBD3"/>
<g opacity="0.1">
<g opacity="0.1">
<path opacity="0.1" d="M129.733 218.45L204.333 8.25H176.033L101.433 218.45H129.733Z" fill="white"/>
</g>
<g opacity="0.1">
<path opacity="0.1" d="M35.6333 218.45H48.9333L123.533 8.25H35.6333C31.4333 8.25 28.0333 11.65 28.0333 15.85V210.75C27.9333 214.95 31.4333 218.45 35.6333 218.45Z" fill="white"/>
<path opacity="0.1" d="M287.933 218.45H326.633C330.833 218.45 334.233 215.05 334.233 210.85V88.05L287.933 218.45Z" fill="white"/>
</g>
</g>
<g opacity="0.1">
<g opacity="0.1">
<path opacity="0.1" d="M184.633 218.45H236.533L311.133 8.25H259.233L184.633 218.45Z" fill="white"/>
</g>
</g>
<path d="M354.633 224.35C356.333 221.45 357.333 217.95 357.333 214.35H0.333313C0.333313 217.95 1.33331 221.45 3.03331 224.35H354.633Z" fill="#15D7E2"/>
</g>
<defs>
<clipPath id="clip0_1:191">
<rect width="357" height="233.7" fill="white" transform="translate(0.333313 0.650024)"/>
</clipPath>
</defs>
</svg>
