<svg width="45" height="23" viewBox="0 0 45 23" fill="none" xmlns="http://www.w3.org/2000/svg">
<path d="M44.0181 20.6998C43.9651 20.5954 43.9157 20.5089 43.8698 20.4395C43.1108 19.1896 41.6602 17.6554 39.5191 15.8365L39.4738 15.7949L39.4512 15.7744L39.4283 15.7535H39.4053C38.4335 14.9065 37.8182 14.3371 37.5605 14.0455C37.0889 13.4901 36.9833 12.9279 37.241 12.3583C37.4231 11.9279 38.107 11.019 39.2911 9.63035C39.914 8.8944 40.4073 8.30457 40.7716 7.86019C43.399 4.66665 44.538 2.62594 44.1886 1.73725L44.0529 1.52958C43.9617 1.40455 43.7263 1.29017 43.3471 1.18586C42.967 1.08177 42.4812 1.06455 41.8888 1.13393L35.3287 1.17536C35.2224 1.14093 35.0707 1.14414 34.873 1.18586C34.6755 1.22759 34.5767 1.24852 34.5767 1.24852L34.4625 1.30068L34.3719 1.36334C34.296 1.40477 34.2124 1.47764 34.1212 1.58181C34.0305 1.68561 33.9546 1.80743 33.894 1.94624C33.1798 3.62624 32.3677 5.18821 31.4564 6.63209C30.8945 7.49306 30.3784 8.23921 29.9071 8.87099C29.4365 9.50255 29.0416 9.96786 28.723 10.2661C28.4039 10.5647 28.1158 10.8039 27.8572 10.9846C27.5989 11.1653 27.4018 11.2417 27.2653 11.2138C27.1284 11.1858 26.9996 11.1581 26.8776 11.1304C26.6651 11.0054 26.4942 10.8353 26.3654 10.6201C26.236 10.4049 26.1488 10.1341 26.1033 9.80782C26.058 9.48132 26.0312 9.20048 26.0235 8.96436C26.0164 8.72853 26.0197 8.39495 26.0351 7.96457C26.0509 7.53398 26.058 7.24264 26.058 7.08989C26.058 6.5622 26.0692 5.98951 26.0918 5.37167C26.1148 4.75382 26.1334 4.26429 26.1489 3.90365C26.1644 3.54264 26.1716 3.1607 26.1716 2.75805C26.1716 2.35539 26.1448 2.03961 26.0918 1.81042C26.0395 1.58152 25.9591 1.35933 25.8533 1.14392C25.7467 0.92873 25.5908 0.76227 25.3863 0.644099C25.1813 0.526074 24.9265 0.432412 24.6232 0.362823C23.8183 0.196289 22.7933 0.106202 21.5478 0.0921967C18.7234 0.0644776 16.9085 0.23123 16.1037 0.592235C15.7848 0.744763 15.4962 0.953167 15.2382 1.21679C14.9648 1.52236 14.9266 1.68911 15.124 1.71654C16.0353 1.84135 16.6804 2.13991 17.0601 2.61194L17.197 2.86207C17.3034 3.04253 17.4097 3.36203 17.516 3.82013C17.6222 4.27822 17.6907 4.78497 17.7209 5.34008C17.7967 6.3538 17.7967 7.22155 17.7209 7.94342C17.6449 8.66557 17.5731 9.22776 17.5045 9.63042C17.436 10.0331 17.3336 10.3594 17.197 10.6092C17.0601 10.8591 16.9691 11.0119 16.9235 11.0673C16.8779 11.1227 16.8399 11.1577 16.8098 11.1714C16.6124 11.2405 16.4071 11.2758 16.1946 11.2758C15.9819 11.2758 15.7238 11.1785 15.4202 10.984C15.1166 10.7895 14.8015 10.5224 14.475 10.1822C14.1484 9.84189 13.7801 9.36636 13.37 8.75552C12.9601 8.14467 12.5349 7.42274 12.0945 6.5897L11.7301 5.98557C11.5023 5.59692 11.1912 5.03101 10.7963 4.28836C10.4012 3.54541 10.052 2.82676 9.74844 2.13254C9.62709 1.84098 9.44479 1.61901 9.20184 1.46626L9.08783 1.4036C9.01204 1.34816 8.89037 1.2893 8.72346 1.22656C8.55631 1.1639 8.38191 1.11897 8.19952 1.09132L1.95813 1.13276C1.32034 1.13276 0.887589 1.26486 0.659727 1.5287L0.568534 1.65351C0.522978 1.72303 0.5 1.83405 0.5 1.98687C0.5 2.13962 0.545556 2.32709 0.636749 2.54906C1.54788 4.5069 2.53871 6.39509 3.60925 8.2139C4.67979 10.0327 5.61006 11.4978 6.39952 12.6079C7.18914 13.7188 7.994 14.7672 8.8141 15.7527C9.63419 16.7385 10.177 17.3703 10.4426 17.6479C10.7086 17.9259 10.9174 18.1338 11.0693 18.2727L11.6388 18.7724C12.0033 19.1057 12.5385 19.5048 13.2446 19.9699C13.951 20.4352 14.7329 20.8933 15.5909 21.3449C16.4491 21.7958 17.4474 22.1637 18.5865 22.4482C19.7254 22.7331 20.8339 22.8474 21.9122 22.7923H24.5318C25.0631 22.7503 25.4656 22.5976 25.7392 22.3339L25.8298 22.2296C25.8907 22.1467 25.9478 22.0179 26.0005 21.8447C26.0537 21.6712 26.0802 21.48 26.0802 21.272C26.0647 20.6751 26.1144 20.1371 26.228 19.6582C26.3415 19.1794 26.4709 18.8184 26.6157 18.5752C26.7603 18.3323 26.9235 18.1273 27.1052 17.9612C27.2873 17.7946 27.417 17.6938 27.4931 17.659C27.5688 17.6241 27.6292 17.6004 27.6747 17.5862C28.0392 17.4751 28.4681 17.5827 28.9621 17.9092C29.4557 18.2355 29.9187 18.6384 30.3518 19.1172C30.7846 19.5965 31.3046 20.1341 31.9119 20.7311C32.5197 21.3282 33.051 21.772 33.5064 22.064L33.9618 22.314C34.266 22.4807 34.6608 22.6335 35.1469 22.7723C35.632 22.911 36.0571 22.9457 36.4221 22.8764L42.2533 22.7932C42.83 22.7932 43.2788 22.7059 43.5971 22.5326C43.9161 22.3591 44.1056 22.1679 44.1667 21.96C44.2277 21.7518 44.2309 21.5156 44.1783 21.2515C44.1243 20.9881 44.0711 20.8039 44.0181 20.6998Z" fill="white"/>
</svg>
