<svg width="46" height="45" viewBox="0 0 46 45" fill="none" xmlns="http://www.w3.org/2000/svg">
<circle cx="23" cy="22.5" r="21.5" fill="white" stroke="#F13C6E" stroke-width="2"/>
<g clip-path="url(#clip0_31380:2)">
<path d="M26.625 12H18.375C14.5786 12 11.5 15.0786 11.5 18.875V27.125C11.5 30.9214 14.5786 34 18.375 34H26.625C30.4214 34 33.5 30.9214 33.5 27.125V18.875C33.5 15.0786 30.4214 12 26.625 12ZM31.4375 27.125C31.4375 29.7787 29.2787 31.9375 26.625 31.9375H18.375C15.7213 31.9375 13.5625 29.7787 13.5625 27.125V18.875C13.5625 16.2213 15.7213 14.0625 18.375 14.0625H26.625C29.2787 14.0625 31.4375 16.2213 31.4375 18.875V27.125Z" fill="#F13C6E"/>
<path d="M22.5 17.5C19.4626 17.5 17 19.9626 17 23C17 26.0374 19.4626 28.5 22.5 28.5C25.5374 28.5 28 26.0374 28 23C28 19.9626 25.5374 17.5 22.5 17.5ZM22.5 26.4375C20.6052 26.4375 19.0625 24.8948 19.0625 23C19.0625 21.1039 20.6052 19.5625 22.5 19.5625C24.3948 19.5625 25.9375 21.1039 25.9375 23C25.9375 24.8948 24.3948 26.4375 22.5 26.4375Z" fill="#F13C6E"/>
<path d="M28.4125 17.8204C28.8173 17.8204 29.1454 17.4922 29.1454 17.0875C29.1454 16.6827 28.8173 16.3546 28.4125 16.3546C28.0077 16.3546 27.6796 16.6827 27.6796 17.0875C27.6796 17.4922 28.0077 17.8204 28.4125 17.8204Z" fill="#F13C6E"/>
</g>
<defs>
<clipPath id="clip0_31380:2">
<rect width="22" height="22" fill="white" transform="translate(11.5 12)"/>
</clipPath>
</defs>
</svg>
