<svg width="46" height="45" viewBox="0 0 46 45" fill="none" xmlns="http://www.w3.org/2000/svg">
<circle cx="23" cy="22.5" r="21.5" fill="white" stroke="#F13C6E" stroke-width="2"/>
<path d="M27.4993 13.0042L24.9058 13C21.9921 13 20.1091 14.9319 20.1091 17.922V20.1914H17.5014C17.2761 20.1914 17.0936 20.3741 17.0936 20.5994V23.8875C17.0936 24.1128 17.2763 24.2953 17.5014 24.2953H20.1091V32.5922C20.1091 32.8175 20.2915 33 20.5169 33H23.9192C24.1445 33 24.327 32.5922 24.327 32.5922V24.2953H27.3759C27.6013 24.2953 27.7837 24.1128 27.7837 23.8875L27.785 20.5994C27.785 20.4912 27.7419 20.3876 27.6656 20.311C27.5892 20.2345 27.4852 20.1914 27.377 20.1914H24.327V18.2676C24.327 17.343 24.5473 16.8736 25.7518 16.8736L27.4989 16.873C27.724 16.873 27.9065 16.6903 27.9065 16.4651V13.412C27.9065 13.1871 27.7242 13.0046 27.4993 13.0042Z" fill="#F13C6E"/>
</svg>
