<svg width="46" height="45" viewBox="0 0 46 45" fill="none" xmlns="http://www.w3.org/2000/svg">
<circle cx="23" cy="22.5" r="21.5" fill="white" stroke="#F13C6E" stroke-width="2"/>
<path d="M29.0749 15H16.1069C13.5626 15 11.5 17.1025 11.5 19.696V26.304C11.5 28.8975 13.5626 31 16.1069 31H29.0749C31.6192 31 33.6818 28.8975 33.6818 26.304V19.696C33.6818 17.1025 31.6192 15 29.0749 15ZM25.9593 23.3215L19.8938 26.2704C19.7321 26.3489 19.5454 26.2288 19.5454 26.0463V19.9643C19.5454 19.7792 19.737 19.6592 19.899 19.7429L25.9646 22.8761C26.1449 22.9692 26.1418 23.2328 25.9593 23.3215Z" fill="#F13C6E"/>
</svg>
