<svg width="46" height="45" viewBox="0 0 46 45" fill="none" xmlns="http://www.w3.org/2000/svg">
<circle cx="23" cy="22.5" r="21.5" fill="white" stroke="#F13C6E" stroke-width="2"/>
<path d="M36.3947 29.4498C36.3607 29.3766 36.3291 29.3159 36.2997 29.2672C35.8131 28.3909 34.8833 27.3154 33.5109 26.0402L33.4819 26.011L33.4674 25.9966L33.4527 25.982H33.4379C32.8151 25.3882 32.4206 24.9889 32.2554 24.7845C31.9532 24.3951 31.8855 24.001 32.0507 23.6016C32.1674 23.2999 32.6057 22.6627 33.3648 21.6891C33.764 21.1732 34.0802 20.7596 34.3137 20.4481C35.9978 18.2092 36.728 16.7784 36.504 16.1554L36.417 16.0098C36.3585 15.9221 36.2077 15.842 35.9646 15.7688C35.721 15.6959 35.4096 15.6838 35.0299 15.7324L30.8249 15.7615C30.7567 15.7373 30.6595 15.7396 30.5328 15.7688C30.4062 15.7981 30.3429 15.8128 30.3429 15.8128L30.2697 15.8493L30.2116 15.8933C30.1629 15.9223 30.1094 15.9734 30.0509 16.0464C29.9928 16.1192 29.9441 16.2046 29.9053 16.3019C29.4474 17.4797 28.9269 18.5748 28.3428 19.5871C27.9826 20.1907 27.6518 20.7138 27.3497 21.1567C27.048 21.5995 26.7949 21.9257 26.5907 22.1349C26.3861 22.3442 26.2015 22.5119 26.0357 22.6385C25.8702 22.7653 25.7438 22.8188 25.6563 22.7992C25.5686 22.7796 25.486 22.7602 25.4078 22.7408C25.2716 22.6531 25.1621 22.5339 25.0795 22.383C24.9965 22.2322 24.9407 22.0423 24.9115 21.8135C24.8824 21.5846 24.8652 21.3877 24.8603 21.2222C24.8558 21.0569 24.8579 20.823 24.8678 20.5213C24.8779 20.2194 24.8824 20.0151 24.8824 19.908C24.8824 19.5381 24.8896 19.1366 24.9041 18.7034C24.9188 18.2703 24.9308 17.9271 24.9407 17.6742C24.9507 17.4211 24.9553 17.1534 24.9553 16.8711C24.9553 16.5888 24.9381 16.3674 24.9041 16.2067C24.8706 16.0462 24.8191 15.8904 24.7512 15.7394C24.6829 15.5886 24.583 15.4719 24.4519 15.389C24.3205 15.3063 24.1572 15.2406 23.9628 15.1918C23.4468 15.0751 22.7898 15.0119 21.9915 15.0021C20.181 14.9826 19.0177 15.0996 18.5018 15.3526C18.2974 15.4596 18.1124 15.6057 17.9471 15.7905C17.7718 16.0047 17.7473 16.1216 17.8739 16.1409C18.458 16.2284 18.8715 16.4377 19.1149 16.7686L19.2026 16.944C19.2708 17.0705 19.3389 17.2945 19.4071 17.6157C19.4752 17.9368 19.5191 18.2921 19.5384 18.6813C19.587 19.392 19.587 20.0004 19.5384 20.5064C19.4897 21.0127 19.4437 21.4069 19.3997 21.6892C19.3558 21.9715 19.2902 22.2002 19.2026 22.3754C19.1149 22.5506 19.0565 22.6577 19.0273 22.6965C18.9981 22.7354 18.9737 22.7599 18.9544 22.7695C18.8279 22.818 18.6963 22.8427 18.5601 22.8427C18.4237 22.8427 18.2583 22.7745 18.0637 22.6381C17.8691 22.5018 17.6672 22.3145 17.4578 22.076C17.2485 21.8374 17.0125 21.504 16.7495 21.0758C16.4868 20.6475 16.2143 20.1414 15.932 19.5574L15.6984 19.1338C15.5524 18.8614 15.3529 18.4646 15.0998 17.9439C14.8466 17.4231 14.6228 16.9192 14.4282 16.4325C14.3504 16.2281 14.2335 16.0725 14.0778 15.9654L14.0047 15.9215C13.9561 15.8826 13.8781 15.8413 13.7712 15.7974C13.664 15.7534 13.5522 15.7219 13.4353 15.7025L9.43465 15.7316C9.02583 15.7316 8.74844 15.8242 8.60238 16.0092L8.54393 16.0967C8.51473 16.1454 8.5 16.2233 8.5 16.3304C8.5 16.4375 8.5292 16.5689 8.58765 16.7245C9.17168 18.0972 9.8068 19.4209 10.493 20.6961C11.1792 21.9712 11.7755 22.9984 12.2815 23.7766C12.7877 24.5554 13.3036 25.2905 13.8293 25.9814C14.3549 26.6726 14.7029 27.1155 14.8731 27.3101C15.0436 27.505 15.1775 27.6508 15.2748 27.7481L15.6399 28.0985C15.8735 28.3321 16.2166 28.612 16.6692 28.938C17.1219 29.2642 17.6232 29.5854 18.1731 29.902C18.7232 30.2181 19.3631 30.476 20.0933 30.6755C20.8233 30.8752 21.5338 30.9554 22.225 30.9167H23.9042C24.2447 30.8873 24.5027 30.7802 24.6781 30.5954L24.7362 30.5222C24.7752 30.4641 24.8118 30.3739 24.8456 30.2524C24.8797 30.1307 24.8967 29.9967 24.8967 29.8509C24.8867 29.4324 24.9186 29.0553 24.9914 28.7195C25.0642 28.3838 25.1471 28.1307 25.2399 27.9602C25.3326 27.7899 25.4373 27.6462 25.5537 27.5297C25.6704 27.413 25.7536 27.3423 25.8023 27.3179C25.8508 27.2934 25.8895 27.2768 25.9187 27.2668C26.1524 27.189 26.4273 27.2644 26.7439 27.4933C27.0604 27.7221 27.3571 28.0045 27.6347 28.3402C27.9122 28.6762 28.2455 29.0532 28.6348 29.4716C29.0243 29.8903 29.3649 30.2015 29.6568 30.4062L29.9487 30.5814C30.1437 30.6983 30.3968 30.8054 30.7083 30.9027C31.0193 31 31.2918 31.0243 31.5257 30.9757L35.2635 30.9174C35.6332 30.9174 35.9208 30.8562 36.1249 30.7347C36.3293 30.6131 36.4508 30.479 36.49 30.3332C36.529 30.1873 36.5311 30.0217 36.4974 29.8365C36.4628 29.6519 36.4286 29.5227 36.3947 29.4498Z" fill="#F13C6E"/>
</svg>
