<svg width="17" height="14" viewBox="0 0 17 14" fill="none" xmlns="http://www.w3.org/2000/svg">
<path d="M5.72273 13.252C4.15073 13.252 2.91473 12.658 2.01473 11.47C1.12673 10.27 0.682734 8.68 0.682734 6.7C0.682734 4.72 1.12673 3.136 2.01473 1.948C2.91473 0.747999 4.15073 0.147999 5.72273 0.147999C7.30673 0.147999 8.54273 0.747999 9.43073 1.948C10.3187 3.136 10.7627 4.72 10.7627 6.7C10.7627 8.68 10.3187 10.27 9.43073 11.47C8.54273 12.658 7.30673 13.252 5.72273 13.252ZM3.81473 9.778C4.24673 10.474 4.88273 10.822 5.72273 10.822C6.56273 10.822 7.19873 10.468 7.63073 9.76C8.07473 9.052 8.29673 8.032 8.29673 6.7C8.29673 5.356 8.07473 4.33 7.63073 3.622C7.19873 2.914 6.56273 2.56 5.72273 2.56C4.88273 2.56 4.24673 2.914 3.81473 3.622C3.38273 4.33 3.16673 5.356 3.16673 6.7C3.16673 8.044 3.38273 9.07 3.81473 9.778ZM14.5491 0.399999H16.7091V13H14.2251V3.028L11.8491 3.694L11.2371 1.57L14.5491 0.399999Z" fill="white"/>
</svg>
