<svg width="20" height="14" viewBox="0 0 20 14" fill="none" xmlns="http://www.w3.org/2000/svg">
<path d="M5.08602 13.252C3.51402 13.252 2.27802 12.658 1.37802 11.47C0.490016 10.27 0.0460156 8.68 0.0460156 6.7C0.0460156 4.72 0.490016 3.136 1.37802 1.948C2.27802 0.747999 3.51402 0.147999 5.08602 0.147999C6.67002 0.147999 7.90602 0.747999 8.79402 1.948C9.68202 3.136 10.126 4.72 10.126 6.7C10.126 8.68 9.68202 10.27 8.79402 11.47C7.90602 12.658 6.67002 13.252 5.08602 13.252ZM3.17802 9.778C3.61002 10.474 4.24602 10.822 5.08602 10.822C5.92602 10.822 6.56202 10.468 6.99402 9.76C7.43802 9.052 7.66002 8.032 7.66002 6.7C7.66002 5.356 7.43802 4.33 6.99402 3.622C6.56202 2.914 5.92602 2.56 5.08602 2.56C4.24602 2.56 3.61002 2.914 3.17802 3.622C2.74602 4.33 2.53002 5.356 2.53002 6.7C2.53002 8.044 2.74602 9.07 3.17802 9.778ZM10.9235 13V11.146L15.2255 6.718C16.1855 5.71 16.6655 4.87 16.6655 4.198C16.6655 3.706 16.5095 3.31 16.1975 3.01C15.8975 2.71 15.5075 2.56 15.0275 2.56C14.0795 2.56 13.3775 3.052 12.9215 4.036L10.8335 2.812C11.2295 1.948 11.7995 1.288 12.5435 0.831999C13.2875 0.375999 14.1035 0.147999 14.9915 0.147999C16.1315 0.147999 17.1095 0.507999 17.9255 1.228C18.7415 1.936 19.1495 2.896 19.1495 4.108C19.1495 5.416 18.4595 6.76 17.0795 8.14L14.6135 10.606H19.3475V13H10.9235Z" fill="white"/>
</svg>
