<svg width="21" height="14" viewBox="0 0 21 14" fill="none" xmlns="http://www.w3.org/2000/svg">
<path d="M6.03328 13.252C4.46128 13.252 3.22528 12.658 2.32528 11.47C1.43728 10.27 0.993281 8.68 0.993281 6.7C0.993281 4.72 1.43728 3.136 2.32528 1.948C3.22528 0.747999 4.46128 0.147999 6.03328 0.147999C7.61728 0.147999 8.85328 0.747999 9.74128 1.948C10.6293 3.136 11.0733 4.72 11.0733 6.7C11.0733 8.68 10.6293 10.27 9.74128 11.47C8.85328 12.658 7.61728 13.252 6.03328 13.252ZM4.12528 9.778C4.55728 10.474 5.19328 10.822 6.03328 10.822C6.87328 10.822 7.50928 10.468 7.94128 9.76C8.38528 9.052 8.60728 8.032 8.60728 6.7C8.60728 5.356 8.38528 4.33 7.94128 3.622C7.50928 2.914 6.87328 2.56 6.03328 2.56C5.19328 2.56 4.55728 2.914 4.12528 3.622C3.69328 4.33 3.47728 5.356 3.47728 6.7C3.47728 8.044 3.69328 9.07 4.12528 9.778ZM17.5454 5.512C18.3974 5.764 19.0874 6.208 19.6154 6.844C20.1554 7.468 20.4254 8.224 20.4254 9.112C20.4254 10.408 19.9874 11.422 19.1114 12.154C18.2474 12.886 17.1854 13.252 15.9254 13.252C14.9414 13.252 14.0594 13.03 13.2794 12.586C12.5114 12.13 11.9534 11.464 11.6054 10.588L13.7294 9.364C14.0414 10.336 14.7734 10.822 15.9254 10.822C16.5614 10.822 17.0534 10.672 17.4014 10.372C17.7614 10.06 17.9414 9.64 17.9414 9.112C17.9414 8.596 17.7614 8.182 17.4014 7.87C17.0534 7.558 16.5614 7.402 15.9254 7.402H15.3854L14.4314 5.962L16.9154 2.722H11.9834V0.399999H19.9034V2.452L17.5454 5.512Z" fill="white"/>
</svg>
